<?xml version="1.0" encoding="UTF-8" standalone="no"?>
<!DOCTYPE svg PUBLIC "-//W3C//DTD SVG 1.1//EN" "http://www.w3.org/Graphics/SVG/1.1/DTD/svg11.dtd">
<svg width="100%" height="100%" viewBox="0 0 512 512" version="1.1" xmlns="http://www.w3.org/2000/svg" xmlns:xlink="http://www.w3.org/1999/xlink" xml:space="preserve" xmlns:serif="http://www.serif.com/" style="fill-rule:evenodd;clip-rule:evenodd;stroke-linejoin:round;stroke-miterlimit:2;">
    <g id="logo" transform="matrix(4.14716,0,0,4.14716,35.5784,35.1353)">
        <g transform="matrix(1.89041,0,0,1.89041,-1000.46,-489.195)">
            <rect x="524.692" y="254.296" width="65.308" height="65.308" style="fill:rgb(0,190,99);"/>
        </g>
        <g transform="matrix(0.306278,0,0,0.306278,-126.469,-54.1147)">
            <g transform="matrix(-0.780782,0.624804,0.624804,0.780782,655.835,262.432)">
                <path d="M13.999,-39.898C42.276,-39.899 65.198,-29.868 65.199,-17.495C65.2,-5.12 42.276,4.91 13.999,4.91C-14.278,4.91 -37.202,-5.119 -37.202,-17.493C-37.202,-29.866 -14.278,-39.897 13.999,-39.898" style="fill:rgb(0,190,99);fill-rule:nonzero;"/>
            </g>
            <g transform="matrix(0.707107,0.707107,0.707107,-0.707107,523.861,259.322)">
                <path d="M12.035,-4.985C37.844,-4.986 58.765,2.635 58.765,12.035C58.765,21.436 37.843,29.056 12.035,29.056C-13.772,29.056 -34.694,21.436 -34.695,12.035C-34.694,2.635 -13.773,-4.986 12.035,-4.985" style="fill:rgb(0,190,99);fill-rule:nonzero;"/>
            </g>
            <g transform="matrix(-0.624793,-0.78079,-0.78079,0.624793,609.497,345.657)">
                <path d="M-17.493,-36.403C10.784,-36.403 33.707,-26.372 33.708,-13.999C33.708,-1.625 10.784,8.405 -17.493,8.405C-45.771,8.405 -68.694,-1.625 -68.693,-13.999C-68.693,-26.372 -45.77,-36.402 -17.493,-36.403" style="fill:rgb(250,70,89);fill-rule:nonzero;"/>
            </g>
            <g transform="matrix(0.0414072,0.999142,0.999142,-0.0414072,599.744,293.586)">
                <path d="M101.222,-100.682C149.087,-102.666 189.496,-65.472 191.48,-17.608C193.464,30.257 117.916,104.966 101.222,60.062C82.909,10.807 19.864,-9.646 18.275,-19.946C10.965,-67.29 53.357,-98.699 101.222,-100.682" style="fill:rgb(250,70,89);fill-rule:nonzero;"/>
            </g>
            <g transform="matrix(1,0,0,1,509.253,473.598)">
                <path d="M0,-246.058C31.75,-240.127 56.827,-215.048 62.757,-183.301C31.006,-189.23 5.93,-214.309 0,-246.058M21.654,-132.752C33.593,-144.691 48.701,-152.305 65.078,-154.827C68.208,-131.552 78.983,-110.665 94.824,-94.824C110.665,-78.983 131.552,-68.209 154.827,-65.078C152.304,-48.701 144.69,-33.593 132.751,-21.654C117.915,-6.818 98.187,1.355 77.203,1.354C56.22,1.354 36.491,-6.817 21.654,-21.654C6.816,-36.492 -1.354,-56.221 -1.354,-77.203C-1.355,-98.187 6.817,-117.915 21.654,-132.752M132.727,-132.726C143.708,-121.745 151.441,-107.526 154.406,-91.652C122.659,-97.582 97.582,-122.659 91.651,-154.407C107.526,-151.442 121.744,-143.709 132.727,-132.726M91.632,-183.298C94.495,-198.781 101.933,-213.031 113.306,-224.404C124.678,-235.776 138.928,-243.215 154.41,-246.077C148.486,-214.311 123.397,-189.223 91.632,-183.298M-27.54,-260.506C-27.539,-231.628 -15.793,-205.441 3.173,-186.475C10.067,-179.581 17.926,-173.656 26.511,-168.887C18.044,-164.19 10.173,-158.304 3.138,-151.268C-16.645,-131.486 -27.539,-105.182 -27.539,-77.205C-27.541,-49.226 -16.646,-22.922 3.138,-3.138C22.921,16.646 49.226,27.541 77.205,27.539C105.182,27.539 131.486,16.644 151.268,-3.138C171.052,-22.922 181.946,-49.226 181.946,-77.203C181.948,-116.604 160.073,-150.975 127.841,-168.854C160.073,-186.734 181.946,-221.106 181.946,-260.503C181.946,-267.736 176.086,-273.597 168.853,-273.597C140.876,-273.597 114.572,-262.703 94.79,-242.92C87.754,-235.885 81.867,-228.013 77.17,-219.547C59.281,-251.748 24.926,-273.596 -14.448,-273.598C-21.679,-273.599 -27.541,-267.736 -27.54,-260.506" style="fill:white;fill-rule:nonzero;"/>
            </g>
        </g>
    </g>
</svg>
