<?xml version="1.0" encoding="UTF-8" standalone="no"?>
<!DOCTYPE svg PUBLIC "-//W3C//DTD SVG 1.1//EN" "http://www.w3.org/Graphics/SVG/1.1/DTD/svg11.dtd">
<svg width="100%" height="100%" viewBox="0 0 128 128" version="1.1" xmlns="http://www.w3.org/2000/svg" xmlns:xlink="http://www.w3.org/1999/xlink" xml:space="preserve" xmlns:serif="http://www.serif.com/" style="fill-rule:evenodd;clip-rule:evenodd;stroke-linejoin:round;stroke-miterlimit:2;">
    <g transform="matrix(1,0,0,1,-1074,0)">
        <g transform="matrix(0.125,0,0,0.125,939.75,0)">
            <g id="logo" transform="matrix(1,0,0,1,1074,0)">
                <g transform="matrix(1,0,0,1,-1124,0)">
                    <path d="M2148,256C2148,114.71 2033.29,0 1892,0L1380,0C1238.71,0 1124,114.71 1124,256L1124,768C1124,909.29 1238.71,1024 1380,1024L1892,1024C2033.29,1024 2148,909.29 2148,768L2148,256ZM2100,256L2100,768C2100,882.798 2006.8,976 1892,976L1380,976C1265.2,976 1172,882.798 1172,768L1172,256C1172,141.202 1265.2,48 1380,48L1892,48C2006.8,48 2100,141.202 2100,256Z" style="fill:white;"/>
                </g>
                <g transform="matrix(1.50377,0,0,1.50377,127.032,127.072)">
                    <g transform="matrix(0.599608,0,0,0.599608,-28.6491,-36.3635)">
                        <circle cx="363.235" cy="526.971" r="33.272" style="fill:white;"/>
                    </g>
                    <g transform="matrix(0.599608,0,0,0.599608,104.951,-36.3635)">
                        <circle cx="363.235" cy="526.971" r="33.272" style="fill:white;"/>
                    </g>
                    <path d="M492.1,272.5C492.1,258.8 486.4,246.5 477.3,237.7C479.1,108.7 383.6,-2.7 251.3,0C123.2,-2.3 18.3,114 30.8,241.9C15,260.4 16.6,290.2 34.2,306.9L34.2,441C34.2,480.2 66.1,512 105.2,512L184.2,512C192.5,512 199.2,505.3 199.2,497L199.2,474.2C210.9,477 223.1,478.5 235.7,478.5L276.2,478.5C288.8,478.5 301,477 312.7,474.1L312.7,497C312.7,505.3 319.4,512 327.7,512L404.4,512C443.5,512 475.3,480.2 475.4,441.1L475.7,308.7C485.7,299.8 492.1,286.9 492.1,272.5ZM431.3,254.1L443.7,254.1C467.4,254.1 467.9,290.8 443.7,290.8L431.3,290.8L431.3,254.1ZM135.8,68.4C169.2,43.3 209.1,30 251.2,30C362.1,27.8 442.3,116.6 446.9,224.2C445.8,224.1 444.8,224.1 443.7,224.1L423.5,224.1C389.2,191.6 333.2,187.5 269.9,191.8C172.1,199.6 150,148.1 148.6,144.8C146.4,138.2 140,134.2 133.1,134.8C126.2,135.4 120.6,140.9 119.6,147.8C117.8,159.8 108.8,190.2 87.4,224.2L68.2,224.2C65.4,224.2 62.7,224.4 60.1,224.9C59.6,163.3 87.5,104.8 135.8,68.4ZM49.9,272.5C49.9,262.4 58.1,254.1 68.3,254.1L80.6,254.1L80.6,290.8L68.2,290.8C58.1,290.9 49.9,282.7 49.9,272.5ZM169.2,482L105.2,482C82.6,482 64.2,463.6 64.2,441L64.2,320.7C65.5,320.8 66.9,320.9 68.2,320.9L80.5,320.9L80.5,323.4C80.5,385.1 116.8,438.6 169.1,463.5L169.1,482L169.2,482ZM235.7,448.5C166.7,448.5 110.6,392.4 110.6,323.4L110.6,243.7C125.4,220.9 134.7,200.2 140.5,184.3C161,204.8 200.4,227.5 272.2,221.8C362.8,214.6 393.6,236.9 401.2,244.5L401.2,323.6C401.2,392.6 345.1,448.7 276.1,448.7L235.7,448.5ZM445.4,441.1C445.3,463.7 427,482 404.4,482L342.7,482L342.7,463.6C395,438.6 431.3,385.2 431.3,323.5L431.3,321L443.7,321C444.4,321 445.1,321 445.7,320.9L445.4,441.1Z" style="fill:white;fill-rule:nonzero;"/>
                    <g transform="matrix(0.837156,0,0,0.837156,41.6719,53.3259)">
                        <path d="M305.3,343.8L206.5,343.8C198.2,343.8 191.5,350.5 191.5,358.8L191.5,362.5C195,447.9 316.8,447.9 320.3,362.5L320.3,358.8C320.3,350.5 313.6,343.8 305.3,343.8Z" style="fill:white;fill-rule:nonzero;"/>
                    </g>
                </g>
            </g>
        </g>
    </g>
</svg>
